<?xml version="1.0" encoding="UTF-8"?>
<svg id="Layer_2" data-name="Layer 2" xmlns="http://www.w3.org/2000/svg" viewBox="0 0 300 337.02">
  <defs>
    <style>
      .cls-1 {
        fill: #4774a8;
      }

      .cls-1, .cls-2, .cls-3 {
        stroke-width: 0px;
      }

      .cls-1, .cls-3 {
        opacity: .75;
      }

      .cls-2 {
        fill: #294f7e;
        opacity: .6;
      }

      .cls-3 {
        fill: #cb1669;
      }
    </style>
  </defs>
  <g id="Layer_2-2" data-name="Layer 2">
    <path class="cls-3" d="m231.72,175.23L68.28,11.8C43.09-13.4,0,4.44,0,40.08v153.43c0,27.61,22.39,50,50,50h153.43c35.64,0,53.48-43.09,28.28-68.28Z"/>
    <path class="cls-1" d="m68.28,161.8l163.43,163.43c25.2,25.2,68.28,7.35,68.28-28.28v-153.43c0-27.61-22.39-50-50-50H96.57c-35.64,0-53.48,43.09-28.28,68.28Z"/>
  </g>
  <g id="Layer_3" data-name="Layer 3">
    <path class="cls-2" d="m231.72,175.23l-80.76-80.76h-50.96c-13.8,0-26.3,5.6-35.35,14.65-.09.09-.18.18-.27.27-13.63,13.84-13.26,36.2.48,49.94l84.19,84.19h54.39c35.64,0,53.48-43.09,28.28-68.28Z"/>
  </g>
</svg>